<?xml version="1.0" encoding="UTF-8"?><svg id="uuid-9a1f51e8-8787-4213-95c1-f92c9bba46c3" xmlns="http://www.w3.org/2000/svg" viewBox="0 0 512 512"><path d="m445.44,512c-.66-.25-1.31-.53-1.97-.74-14.36-4.53-18.91-22.41-8.36-33.15,6.05-6.16,12.26-12.17,18.42-18.23.4-.39.89-.69,1.76-1.35-1.08-.2-1.56-.33-2.05-.36-.8-.04-1.6-.01-2.4-.01-105.42,0-210.84,0-316.26,0-36.72,0-68.45-24.53-77.72-60.08-1.72-6.61-2.53-13.34-2.53-20.17,0-105.82,0-211.64,0-317.46v-3.53c-.84.74-1.31,1.12-1.73,1.54-5.98,5.9-11.92,11.83-17.94,17.69-9.52,9.27-24.66,7.49-31.39-3.69-.97-1.62-1.51-3.5-2.27-5.26C.68,66.49.33,65.81,0,65.12c0-1.92,0-3.84,0-5.76.3-.63.73-1.24.89-1.91.93-3.84,2.86-7.08,5.66-9.84,11.39-11.22,22.71-22.5,34.17-33.64,7.49-7.29,16.53-11.62,26.86-13.24,1.79-.28,3.58-.59,5.37-.89,1.6,0,3.2,0,4.8,0,1.63.27,3.27.57,4.9.82,10.79,1.59,20.11,6.19,27.89,13.81,11.37,11.14,22.73,22.29,33.97,33.56,9.84,9.86,6.84,26.4-5.7,32.24-7.6,3.54-16.38,2.01-22.64-4.01-3.46-3.33-6.84-6.74-10.25-10.11-3.3-3.26-6.6-6.52-9.9-9.78-.37-.37-.78-.7-1.49-1.32-.06,1.16-.13,1.92-.13,2.68,0,106.8.03,213.59-.04,320.39-.01,19.14,14.15,36.96,34.98,39.69,1.74.23,3.51.25,5.27.25,106.48.01,212.95,0,319.43,0,.79,0,1.59,0,2.55,0-.23-1.3-1.2-1.81-1.87-2.48-6.53-6.48-13.13-12.89-19.61-19.42-7.05-7.1-7.73-18.18-1.74-26.11,7.11-9.41,20.87-10.72,29.47-2.65,5.6,5.25,10.98,10.74,16.44,16.14,6.15,6.07,12.29,12.14,18.41,18.24,7.17,7.15,11.7,15.72,13.69,25.64.3,1.47.5,2.95.75,4.42v10.56c-.25,1.47-.46,2.96-.75,4.42-1.97,9.91-6.5,18.5-13.65,25.63-11.32,11.28-22.73,22.47-34.1,33.7-2.67,2.64-5.79,4.49-9.46,5.39-.38.09-.73.3-1.09.45h-7.68Z"/><path d="m512.16,323.36c-.31,1.15-.55,2.32-.93,3.44-2.85,8.42-11.26,13.92-20.35,13.32-8.72-.58-16.37-7.17-18.05-15.7-.38-1.94-.49-3.97-.49-5.95-.02-85.66-.02-171.32-.04-256.98,0-1.75-.08-3.53-.41-5.24-1.75-9.22-9.82-15.94-19.19-16.07-.96-.01-1.92,0-2.88,0-84.94,0-169.88,0-254.82-.03-2.37,0-4.83-.18-7.1-.8-9.11-2.48-15.06-10.94-14.56-20.38.49-9.18,7.38-16.9,16.59-18.59.7-.13,1.38-.34,2.07-.51,87.68,0,175.36,0,263.04,0,.69.14,1.38.36,2.08.42,5.44.46,10.73,1.59,15.86,3.46,21.29,7.75,36.25,26.76,38.79,49.27.04.37.25.73.39,1.09,0,89.76,0,179.52,0,269.28Z"/><path d="m167.87,183.21c20.41-7.64,39.11-4.9,56.5,8.15.5-.34,1.09-.71,1.64-1.13,31.51-23.85,76.91-7.99,86.69,30.29,1.03,4.04,1.65,8.15,1.66,12.33.01,30.08.02,60.15,0,90.23,0,11.01-8.83,19.86-19.78,19.95-11.11.1-20.08-8.67-20.14-19.79-.06-12.4-.01-24.8-.01-37.2,0-16.48,0-32.96,0-49.43,0-1.44-.05-2.88-.21-4.31-.89-7.91-7.55-13.56-15.56-13.24-7.73.31-14,6.65-14.27,14.43-.03.8,0,1.6,0,2.4,0,28.88,0,57.75,0,86.63,0,7.25-2.8,13.11-8.83,17.15-6.53,4.37-13.55,4.76-20.47,1.11-6.92-3.65-10.62-9.62-10.64-17.51-.06-29.2-.01-58.39-.05-87.59,0-1.83-.11-3.7-.54-5.47-1.65-6.8-8.03-11.42-15.17-11.14-6.95.27-12.85,5.4-14.01,12.26-.24,1.41-.33,2.86-.33,4.29-.02,29.12,0,58.23-.02,87.35,0,7.89-3.54,13.87-10.38,17.69-12.97,7.24-29.13-2.04-29.55-16.88-.01-.48-.01-.96-.01-1.44,0-41.12,0-82.23-.02-123.35,0-3.34.52-6.52,1.97-9.54,5.31-11.07,19.26-14.79,29.38-7.84.72.5,1.42,1.03,2.17,1.59Z"/><path d="m405.61,204.18c2.78,0,5.01-.03,7.22,0,11.1.17,19.97,9.54,19.55,20.63-.4,10.77-9.17,19.28-19.98,19.29-18,.03-35.99.02-53.99,0-8.38,0-15.65-4.96-18.66-12.65-3.03-7.74-1.14-16.3,4.98-22,8.43-7.86,16.59-15.98,24.32-24.52,5.75-6.35,11.34-12.83,16.1-19.97,1.99-2.98,3.64-6.19,5.42-9.31,1.11-1.96.49-3.71-.84-5.29-1.67-2-4.46-2.81-6.97-1.95-2.7.92-4.12,2.9-4.43,5.71-.18,1.58-.21,3.2-.54,4.75-1.91,8.96-10.77,16.62-22.12,15.26-9.52-1.14-17.11-9.52-17.32-19.37-.47-22.59,16.31-42.46,38.89-46.06,23.99-3.82,46.48,10.78,52.55,34.16,2.64,10.16,1.52,19.96-2.81,29.47-3.57,7.83-8.29,14.95-13.47,21.78-2.08,2.74-4.28,5.38-6.42,8.08-.39.49-.76,1-1.5,1.98Z"/></svg>