<?xml version="1.0" encoding="UTF-8"?><svg id="uuid-196484cc-3db9-40cc-b117-0377a92c2828" xmlns="http://www.w3.org/2000/svg" viewBox="0 0 512 512"><path d="m80.31,284.03h-20.83v116.65c0,15.36-2.74,26.67-8.21,33.93-5.48,7.26-12.62,10.9-21.43,10.9-9.48,0-16.82-3.8-22.03-11.39-5.21-7.59-7.81-18.74-7.81-33.43V121.32c0-15.85,2.87-27.33,8.61-34.43,5.74-7.1,15.02-10.65,27.84-10.65h96.73c13.35,0,24.76.71,34.25,2.11,9.48,1.4,18.02,4.25,25.64,8.54,9.21,4.79,17.35,11.64,24.43,20.56,7.08,8.92,12.45,19.28,16.12,31.08,3.67,11.81,5.51,24.31,5.51,37.52,0,27.08-6.18,48.71-18.53,64.89-12.35,16.18-31.08,27.66-56.18,34.43,10.55,6.93,20.63,17.17,30.24,30.71,9.61,13.54,18.19,27.95,25.74,43.22,7.54,15.27,13.42,29.06,17.62,41.36,4.21,12.3,6.31,20.77,6.31,25.39s-1.24,9.54-3.71,14.24c-2.47,4.71-5.84,8.42-10.11,11.14-4.28,2.72-9.21,4.09-14.82,4.09-6.68,0-12.29-1.94-16.82-5.82-4.54-3.88-8.45-8.79-11.72-14.74-3.27-5.94-7.71-14.69-13.32-26.25l-23.83-49.04c-8.55-17.99-16.19-31.7-22.93-41.11-6.74-9.41-13.59-15.85-20.53-19.32-6.94-3.47-15.69-5.2-26.24-5.2Zm34.05-152.56h-54.88v99.81h53.27c14.29,0,26.3-1.52,36.05-4.58,9.74-3.05,17.19-8.26,22.33-15.6,5.14-7.34,7.71-17.46,7.71-30.34,0-10.07-2.07-18.95-6.21-26.62-4.14-7.68-9.88-13.41-17.22-17.21-6.94-3.63-20.63-5.45-41.06-5.45Z"/><path d="m398.82,44.79v26.75c17.67,1.82,32.82,5.45,45.45,10.9s23.65,13.71,33.06,24.77c7.43,8.42,13.16,17.09,17.21,26,4.05,8.92,6.07,17.09,6.07,24.52,0,8.26-3.01,15.4-9.04,21.42-6.03,6.03-13.34,9.04-21.92,9.04-16.18,0-26.67-8.75-31.45-26.25-5.45-20.64-18.57-34.34-39.38-41.11v103.03c20.47,5.61,36.78,10.74,48.91,15.36,12.14,4.62,22.99,11.31,32.57,20.06,10.24,9.08,18.12,19.94,23.65,32.57,5.53,12.63,8.3,26.46,8.3,41.48,0,18.82-4.42,36.45-13.25,52.88-8.83,16.43-21.84,29.84-39.01,40.25-17.17,10.4-37.56,16.59-61.17,18.57v14.52c0,9.74-.95,16.84-2.85,21.3-1.9,4.46-6.07,6.69-12.51,6.69-5.94,0-10.12-1.82-12.51-5.45-2.39-3.63-3.59-9.25-3.59-16.84v-19.72c-19.32-2.15-36.2-6.69-50.65-13.62-14.45-6.93-26.5-15.56-36.16-25.88-9.66-10.32-16.8-21.05-21.42-32.2-4.62-11.14-6.93-22.08-6.93-32.82,0-7.93,3.1-15.07,9.29-21.42,6.19-6.35,13.91-9.54,23.16-9.54,7.43,0,13.7,1.73,18.82,5.2,5.11,3.47,8.67,8.34,10.65,14.61,4.46,13.54,8.33,23.9,11.64,31.08,3.3,7.18,8.3,13.75,14.98,19.69s15.56,10.49,26.62,13.62v-115.16c-22.13-6.11-40.62-12.92-55.48-20.43-14.86-7.51-26.91-18.2-36.16-32.07-9.25-13.87-13.87-31.7-13.87-53.5,0-28.4,9.04-51.68,27.12-69.84,18.08-18.16,44.21-28.73,78.39-31.7v-26.25c0-13.87,5.2-20.8,15.6-20.8s15.85,6.77,15.85,20.31Zm-31.45,169.9v-94.86c-13.87,4.13-24.68,9.58-32.44,16.35-7.76,6.77-11.64,17.01-11.64,30.71s3.63,22.91,10.9,29.6c7.26,6.69,18.33,12.75,33.19,18.2Zm31.45,73.56v108.48c16.68-3.3,29.55-9.99,38.64-20.06,9.08-10.07,13.62-21.79,13.62-35.17,0-14.36-4.42-25.47-13.25-33.31-8.83-7.84-21.84-14.49-39.01-19.94Z"/></svg>