<?xml version="1.0" encoding="UTF-8"?><svg id="uuid-4a4d7148-a439-48df-86b6-4da0aa796236" xmlns="http://www.w3.org/2000/svg" viewBox="0 0 512 512"><path d="m115.34,141.98c-4.63-6.53-11.11-9.98-18.72-9.98-6.94,0-11.91,1.86-15.19,5.69-1.31,1.53-3.78,4.75-11.22,16.18-4.99,7.65-10.79,14.66-17.24,20.83-6.37,6.09-15.12,12.05-25.99,17.69-8.38,4.33-14.17,7.86-17.72,10.79-3.6,2.97-7.9,8.71-7.9,19.14,0,6.97,2.42,13.4,7,18.59,4.64,5.28,10.4,8.07,16.63,8.07s16.44-2.76,41.08-22.05v126.51c0,10.73,2.51,19.23,7.45,25.26,5.09,6.21,12.08,9.49,20.22,9.49,10.44,0,27.95-5.32,27.95-40.95v-181.76c0-9.64-2.14-17.55-6.35-23.5Z"/><path d="m319.07,335.67c-5.4-4.64-12.87-6.99-22.2-6.99h-58.21c5.48-6.33,13.86-14.58,24.99-24.6,14.5-13.06,25.01-22.79,31.21-28.93,6.72-6.66,13.33-15.83,19.62-27.28,6.67-12.12,10.05-25.74,10.05-40.48,0-9.47-1.63-18.75-4.84-27.58-3.21-8.8-7.76-16.67-13.55-23.41-5.79-6.74-12.62-12.12-20.36-16.02-11.39-5.57-25.16-8.4-40.95-8.4-13.19,0-24.95,2.22-34.95,6.59-10.07,4.4-18.56,10.33-25.24,17.62-6.66,7.28-11.76,15.54-15.14,24.55-3.38,9-5.09,17.85-5.09,26.31s2.41,15.45,7.16,20.68c4.69,5.16,10.83,7.89,17.77,7.89,10,0,15.75-4.91,18.82-9.03,3.48-4.68,6.43-10.92,9.04-19.09,2.84-8.91,3.85-10.87,3.96-11.07,5.72-9.66,12.97-14.15,22.82-14.15,4.63,0,8.76,1.11,12.64,3.38,3.75,2.2,6.62,5.2,8.8,9.16,2.16,3.94,3.21,8.36,3.21,13.5s-1.13,10.05-3.35,15.33c-2.36,5.61-5.9,11.23-10.52,16.69-4.82,5.7-10.99,11.49-18.34,17.22-4.8,3.58-12.31,10.56-22.94,21.34-10.35,10.49-22.11,23.25-35.01,38-3.73,4.36-7,10.02-10,17.31-3.11,7.55-4.62,13.73-4.62,18.89,0,8.41,2.86,15.78,8.49,21.91,5.61,6.1,13.22,9.2,22.63,9.2h106.08c8.64,0,15.41-2.76,20.13-8.19,4.55-5.25,6.96-11.96,6.96-19.42,0-8.6-3.13-15.83-9.07-20.94Z"/><path d="m507.49,278.8c-2.99-7.99-7.49-15.36-13.36-21.89-3.31-3.68-7.08-7.14-11.26-10.35,4.61-5.21,8.44-10.56,11.44-15.97,4.95-8.97,7.47-19.71,7.47-31.92,0-9.31-1.7-18.15-5.06-26.28-3.37-8.17-8.42-15.43-14.99-21.57-6.45-6.02-14.11-10.67-22.76-13.83-8.49-3.1-17.94-4.66-28.09-4.66-11.54,0-22.2,1.85-31.68,5.51-9.57,3.69-17.76,8.71-24.33,14.93-6.54,6.19-11.62,12.88-15.11,19.9-3.68,7.4-5.55,14.71-5.55,21.72,0,8.12,2.53,15.11,7.32,20.22,4.72,5.04,10.36,7.71,16.31,7.71,4.44,0,8.51-.92,12.09-2.74,4.28-2.17,7.36-5.39,9.16-9.56l.11-.27c1.59-4.02,3.38-8.39,5.32-12.97,1.67-3.94,3.4-7.14,5.17-9.5,1.36-1.82,3.35-3.36,5.91-4.58,2.75-1.3,6.53-1.96,11.24-1.96,6.36,0,11.16,1.97,14.67,6.01,3.61,4.17,5.37,9,5.37,14.79,0,8-2.08,13.59-6.55,17.59-4.93,4.41-10.71,6.55-17.67,6.55h-5.91c-8.73,0-15.67,2.26-20.63,6.73-5.36,4.84-8.19,11.51-8.19,19.29,0,9.72,3.8,15.59,6.98,18.81,4.43,4.48,10.42,6.74,17.8,6.74.99,0,2.85-.08,8.56-.68,4.71-.49,7.04-.59,8.16-.59,8.71,0,15.16,2.55,19.74,7.78,4.66,5.34,6.93,12.82,6.93,22.86,0,6.69-1.36,12.34-4.16,17.27-2.85,5.02-6.31,8.68-10.58,11.17-4.36,2.55-8.74,3.79-13.38,3.79-7.98,0-13.86-2.5-17.99-7.65-5.02-6.27-9.9-16.33-14.51-29.89-1.4-4.35-4.17-7.98-8.22-10.82-3.82-2.67-7.92-4.03-12.18-4.03-7.52,0-13.95,2.73-19.12,8.11-5.21,5.44-7.97,12.84-7.97,21.41,0,6.13,1.73,13.28,5.28,21.85,3.39,8.19,8.42,16.15,14.93,23.68,6.62,7.65,15.07,14.06,25.11,19.06,10.16,5.06,21.73,7.63,34.37,7.63s23.74-2.21,34.01-6.56c10.31-4.37,19.38-10.54,26.95-18.35,7.62-7.86,13.48-16.97,17.42-27.08,3.93-10.08,5.93-20.68,5.93-31.51,0-9.19-1.52-17.91-4.51-25.91Z"/></svg>